# xmcd
#
# Track frame offsets:
#	150
#	12592
#	31525
#	47623
#	61407
#	84755
#	103940
#	123804
#	142283
#	174601
#
# Disc length: 2496 seconds
#
# Revision: 0
# Processed by: cddbd v1.5.2PL0 Copyright (c) Steve Scherf et al.
# Submitted via: dBpowerAMP V4.0
#
DISCID=7e09be0a
DTITLE=Sonny Boy Williamson - Delta Blues
DYEAR=1900
DGENRE=blues
TTITLE0=Sonny's Slow Walk
TTITLE1=Pontiac Blues
TTITLE2=My Babe
TTITLE3=I Don't Care No More
TTITLE4=Baby Don't You Worry
TTITLE5=Night Time Is The Right Time
TTITLE6=I'm Gonna Put You Down
TTITLE7=Fattening Frogs For Snakes
TTITLE8=Nobody But You
TTITLE9=Bye Bye Sonny
EXTD=Lonnie
EXTT0=
EXTT1=
EXTT2=
EXTT3=
EXTT4=
EXTT5=
EXTT6=
EXTT7=
EXTT8=
EXTT9=
PLAYORDER=
